Coordinates
version=1
nRows=17
nColumns=36
inDegrees=yes

Units are S.I. units (second, meters, Newtons, ...)
If the header above contains a line with 'inDegrees', this indicates whether rotational values are in degrees (yes) or radians (no).

endheader
time	pelvis_tilt	pelvis_list	pelvis_rotation	pelvis_tx	pelvis_ty	pelvis_tz	hip_flexion_r	hip_adduction_r	hip_rotation_r	knee_angle_r	knee_angle_r_beta	ankle_angle_r	subtalar_angle_r	mtp_angle_r	hip_flexion_l	hip_adduction_l	hip_rotation_l	knee_angle_l	knee_angle_l_beta	ankle_angle_l	subtalar_angle_l	mtp_angle_l	lumbar_extension	lumbar_bending	lumbar_rotation	arm_flex_r	arm_add_r	arm_rot_r	elbow_flex_r	pro_sup_r	arm_flex_l	arm_add_l	arm_rot_l	elbow_flex_l	pro_sup_l
      4.47083330	     -1.90993989	      1.02634109	      0.16826128	      0.21045314	      0.81120613	     -0.01342966	     43.78838426	     -8.10189664	     -1.12557858	     64.10818231	      1.11889886	     24.20796687	    -10.77247622	     -7.49999987	     41.80228935	     -9.82766785	     -0.00608815	     62.37560663	      1.08865971	     21.98760596	     -3.59505796	     -7.49999987	    -39.85470631	      3.09380233	      0.85228534	    372.05147762	    -22.29451262	    365.23523260	     46.97506936	     78.07752392	      8.90421750	    -21.25254495	     23.05523468	     35.36594111	     54.35778810
      4.47500000	     -2.08368385	      1.00972916	      0.23293318	      0.21222036	      0.81011156	     -0.01299597	     43.60163213	     -8.08400606	     -1.17646154	     63.62487646	      1.11046358	     24.03009278	    -10.71200031	     -7.49999987	     41.59304177	     -9.77585971	      0.03185038	     61.76751264	      1.07804647	     21.85601429	     -3.68748943	     -7.49999987	    -38.89443000	      3.11886019	      0.86700979	    371.82827110	    -22.37361329	    365.89595403	     46.07602158	     77.49359329	      8.67315927	    -21.14180491	     23.61219862	     34.73181078	     54.30246554
      4.47916670	     -2.18703093	      0.99736224	      0.27052134	      0.21266251	      0.81350299	     -0.01387850	     43.21161349	     -8.01017199	     -1.13447743	     62.84343664	      1.09682488	     23.84302587	    -10.80027054	     -7.49999987	     41.21719683	     -9.72329927	     -0.07659645	     61.08396621	      1.06611633	     21.77829802	     -3.47100644	     -7.49999987	    -38.23351215	      3.17542157	      0.98527117	    371.34931580	    -22.48828417	    365.81940579	     45.92346810	     77.26531824	      8.59230291	    -21.09005348	     24.50446457	     34.43333852	     54.31777135
      4.48333330	     -2.00074356	      0.98061499	      0.28491009	      0.21549168	      0.81801099	     -0.01438668	     42.27500609	     -7.98550070	     -1.23825009	     61.86470469	      1.07974279	     23.89946703	    -10.41832960	     -7.49999987	     40.33699412	     -9.66227665	     -0.19495514	     60.12092986	      1.04930818	     21.61558116	     -3.26684136	     -7.49999987	    -37.95728833	      3.20871461	      1.04760091	    370.77385941	    -22.31630614	    364.76975413	     46.08207698	     77.33862602	      8.37582115	    -21.03914443	     24.87421907	     34.37369380	     54.24343476
      4.48750000	     -2.15476006	      0.99269046	      0.28992781	      0.21619944	      0.82049887	     -0.01416081	     41.84379976	     -7.95162147	     -1.25639402	     61.02113556	      1.06501973	     23.75716086	    -10.39304300	     -7.49999987	     39.89054908	     -9.57114894	     -0.30702410	     59.32581333	      1.03543077	     21.39219332	     -3.34141949	     -7.49999987	    -37.08373404	      3.16732213	      0.94651412	    370.70896243	    -22.59414348	    366.23488556	     45.17530162	     78.09921957	      8.08797109	    -21.08745653	     26.14351015	     34.07473931	     53.92591172
      4.49166670	     -1.98475125	      0.99599427	      0.26573559	      0.21663444	      0.82585347	     -0.01477076	     40.86381275	     -7.91208960	     -1.29391058	     59.82750306	      1.04418691	     23.58800773	    -10.16291612	     -7.49999987	     38.91911001	     -9.42837238	     -0.37252090	     58.16935145	      1.01524671	     21.04901682	     -3.30830879	     -7.49999987	    -36.77509950	      3.17206656	      0.84478938	    370.42197241	    -22.60509666	    366.30630005	     45.22910813	     77.44571230	      7.62816527	    -21.12343904	     26.43829984	     34.39459915	     54.00407568
      4.49583330	     -2.02875568	      0.96580123	      0.21528892	      0.21715297	      0.82625034	     -0.01318124	     40.35102869	     -7.76478522	     -1.29319212	     58.97793000	      1.02935906	     23.49484768	     -9.87934380	     -7.49999987	     38.40105663	     -9.46076027	     -0.39776521	     57.38870505	      1.00162186	     20.83583078	     -3.45176579	     -7.49999987	    -36.11901200	      3.17540248	      0.75057887	    370.22687115	    -22.60429834	    366.56595864	     44.93823757	     77.34369021	      7.28841408	    -21.13696043	     26.82999781	     34.24445449	     53.86770916
      4.50000000	     -2.17751190	      0.92173162	      0.20257033	      0.21696550	      0.83309798	     -0.01124722	     39.77090125	     -7.44386146	     -1.27916891	     57.75571455	      1.00802738	     23.02499959	    -10.06644242	     -7.49999987	     37.90599546	     -9.49017306	     -0.46389162	     56.30400517	      0.98269027	     20.28677434	     -3.40733713	     -7.49999987	    -35.46260620	      3.19250431	      0.69369359	    370.04231218	    -22.56642601	    366.95200846	     44.59632482	     77.34848708	      7.17184748	    -21.25703182	     27.61900235	     34.05093652	     53.76845737
      4.50416670	     -2.21384584	      0.87148912	      0.21981160	      0.21854587	      0.83563356	     -0.00970201	     39.13948001	     -7.21788536	     -1.42254663	     56.71191327	      0.98980961	     22.65450691	    -10.49762912	     -7.49999987	     37.29058644	     -9.58569185	     -0.51921251	     55.24221640	      0.96415856	     19.78606647	     -3.28842894	     -7.49999987	    -34.96999386	      3.17852365	      0.69771411	    369.79774218	    -22.35195324	    366.87106842	     44.44775182	     77.76234255	      7.20062367	    -21.48653583	     28.70928566	     33.87271285	     53.49215081
      4.50833330	     -2.33034750	      0.79464673	      0.24148193	      0.21886384	      0.83927198	     -0.01026914	     38.53595555	     -6.95690788	     -1.48218236	     55.52800826	      0.96914657	     22.25803953	    -10.92877283	     -7.49999987	     36.81741821	     -9.67279094	     -0.58276234	     54.19291227	      0.94584475	     19.17475657	     -3.32272272	     -7.49999987	    -34.34971387	      3.14418414	      0.69692215	    369.65308630	    -22.37035190	    367.60861826	     44.12363792	     77.52108417	      7.19192920	    -21.71909599	     30.06522663	     33.80326178	     53.27312852
      4.51250000	     -2.43659403	      0.71376497	      0.27499569	      0.21908348	      0.84116359	     -0.00893804	     38.02141253	     -6.72017447	     -1.56957206	     54.52475238	      0.95163645	     21.87686069	    -11.38934000	     -7.49999987	     36.38960625	     -9.78336828	     -0.63682375	     53.16788935	      0.92795473	     18.65247753	     -3.26134932	     -7.49999987	    -33.74667801	      3.13579919	      0.68924370	    369.33931681	    -22.39992114	    367.84199511	     44.21497019	     77.66178527	      7.11825504	    -22.01531554	     31.19917270	     33.91307502	     52.77355626
      4.51666670	     -2.40224866	      0.62251412	      0.32573730	      0.22179379	      0.84622959	     -0.00924459	     37.28017192	     -6.51524297	     -1.62220590	     53.48536076	      0.93349565	     21.45089256	    -11.85521880	     -7.49999987	     35.61748106	     -9.85712158	     -0.74258259	     52.00525921	      0.90766300	     18.20167128	     -3.09066862	     -7.49999987	    -33.29661855	      3.18678025	      0.56679953	    369.09286639	    -22.33089689	    367.96540478	     44.26006656	     77.21914944	      6.88521168	    -22.14288645	     31.54940551	     34.02187150	     52.67041919
      4.52083330	     -2.40265661	      0.57836804	      0.31949448	      0.22285156	      0.85116810	     -0.01128892	     36.42140641	     -6.38955259	     -1.67421711	     52.17905669	      0.91069634	     20.92245016	    -12.07722015	     -7.49999987	     34.85282896	     -9.78866475	     -0.82906828	     50.85018575	      0.88750317	     17.66551470	     -3.01392577	     -7.49999987	    -32.80191190	      3.19799612	      0.47898686	    368.87756293	    -22.32746417	    368.14549712	     44.16431463	     77.09038970	      6.71552000	    -22.13837601	     32.00861528	     34.01802390	     52.55845945
      4.52500000	     -2.44203994	      0.46928082	      0.33929208	      0.22597176	      0.85447183	     -0.00887962	     35.52032764	     -6.15714960	     -1.71317894	     50.93515988	      0.88898624	     20.25429086	    -12.83385426	     -7.49999987	     34.06023992	     -9.84047930	     -0.78644667	     49.67340359	      0.86696444	     17.12937899	     -3.07336054	     -7.49999987	    -32.09906509	      3.18817639	      0.45898153	    368.66158012	    -22.41197171	    369.10912715	     43.56010029	     77.35472794	      6.62025967	    -22.28805974	     33.37717562	     33.78802038	     52.14210582
      4.52916670	     -2.28595516	      0.41072974	      0.30525268	      0.22707916	      0.86056505	     -0.00915495	     34.34547458	     -5.98924685	     -1.85204001	     49.56738045	      0.86511399	     19.87476605	    -12.73859665	     -7.49999987	     32.97649122	     -9.83324378	     -0.80438642	     48.39970317	      0.84473418	     16.62269204	     -3.24034520	     -7.49999987	    -31.79510377	      3.13288981	      0.34142013	    368.63369548	    -22.49191244	    369.99485784	     43.22252138	     76.60797297	      6.35871611	    -22.42449926	     33.76888698	     34.03175373	     52.15609956
      4.53333330	     -2.10731093	      0.34201802	      0.28829050	      0.22890384	      0.86388392	     -0.00761000	     33.17939283	     -5.76123684	     -1.97414157	     48.15972763	      0.84054581	     19.63192749	    -12.75542644	     -7.49999987	     31.88226502	     -9.88025149	     -0.81236491	     47.06700649	      0.82147423	     16.27413561	     -3.23964410	     -7.49999987	    -31.39411493	      3.05458335	      0.38504606	    368.43119752	    -22.34849608	    370.19950028	     42.72614594	     76.99864071	      6.23654328	    -22.45567720	     34.34435560	     33.87394877	     51.78747967
      4.53750000	     -1.85985191	      0.31783820	      0.25440930	      0.22978855	      0.86846920	     -0.00804151	     32.10706731	     -5.60219691	     -1.99921856	     46.93233651	      0.81912380	     19.15987946	    -12.84226030	     -7.49999987	     30.72033180	     -9.86484026	     -0.92052882	     45.74935521	      0.79847688	     15.95480738	     -3.17408083	     -7.49999987	    -31.23691783	      2.97342064	      0.30388291	    368.61398923	    -22.39376496	    371.19919647	     42.29756050	     76.62790258	      6.08370438	    -22.60597557	     34.87098820	     34.05714220	     51.77097415
